<?xml version="1.0" encoding="utf-8"?>
<!-- Generator: Adobe Illustrator 17.0.0, SVG Export Plug-In . SVG Version: 6.00 Build 0)  -->
<!DOCTYPE svg PUBLIC "-//W3C//DTD SVG 1.1//EN" "http://www.w3.org/Graphics/SVG/1.1/DTD/svg11.dtd">
<svg version="1.1" id="Layer_1" xmlns="http://www.w3.org/2000/svg" xmlns:xlink="http://www.w3.org/1999/xlink" x="0px" y="0px"
	 width="142px" height="82px" viewBox="0 0 142 82" enable-background="new 0 0 142 82" xml:space="preserve">
<g>
	<path d="M20.108,19.532l-3.621,17.032c5.1-0.408,8.924-7.139,8.924-12.545c0-3.773-1.836-6.935-6.323-6.935
		c-8.261,0-13.208,4.641-13.208,12.392c0,2.601,0.663,3.009,0.714,3.468c-3.519,0-5.456-1.275-5.456-4.946
		c0-6.783,9.383-13.259,17.899-13.259c8.363,0,12.035,4.793,12.035,10.046c0,6.477-5.558,13.667-14.737,13.667H16.08l-3.111,14.534
		H5.626l6.936-32.433L20.108,19.532z"/>
	<path d="M50.658,27.487l2.346,11.066c2.907-3.264,5.1-6.629,5.559-9.077c-0.306,0.051-0.612,0.102-0.867,0.102
		c-1.785,0-2.396-1.275-2.396-2.855c0-1.734,1.632-2.499,3.467-2.499c1.479,0,2.55,1.479,2.55,3.978
		c0,2.448-2.396,6.936-7.751,12.851l0.867,4.029c0.459,2.091,0.714,3.264,3.009,3.264c2.04,0,4.691-2.855,6.731-4.487h1.734
		c-2.346,2.346-8.108,9.128-12.086,9.128c-4.029,0-5.1-0.969-6.323-5.967c-4.029,3.417-8.159,5.967-11.27,5.967
		c-3.978,0-6.477-1.734-6.477-5.609c0-0.766,0.102-1.632,0.306-2.55l3.621-17.339h7.394l-3.671,17.339
		c-0.102,0.459-0.306,1.428-0.306,2.243c0,1.021,0.255,1.887,1.173,1.887c2.091,0,5.354-1.835,8.669-4.538l-3.672-16.931H50.658z
		 M38.572,16.677c2.244,0,4.08,1.835,4.08,4.079c0,2.244-1.836,4.029-4.08,4.029S34.543,23,34.543,20.756
		C34.543,18.512,36.328,16.677,38.572,16.677z"/>
	<path d="M71.822,27.487l-3.671,17.339c-0.103,0.561-0.204,1.122-0.204,1.581c0,1.121,0.51,1.938,2.55,1.938
		s4.691-2.855,6.731-4.487h1.733c-2.346,2.346-8.108,9.128-12.086,9.128c-3.926,0-6.374-1.734-6.374-5.559
		c0-0.765,0.102-1.632,0.306-2.601l3.672-17.339H71.822z M69.477,16.677c2.244,0,4.08,1.835,4.08,4.079
		c0,2.244-1.836,4.029-4.08,4.029c-2.243,0-4.028-1.785-4.028-4.029C65.448,18.512,67.233,16.677,69.477,16.677z"/>
	<path d="M94.159,34.474c0.307,0.306,0.766,0.459,1.479,0.459c2.396,0,3.468-1.734,5.354-2.499l0.204,1.071
		c-1.581,1.989-4.232,3.671-7.19,4.487c-0.969,10.25-6.527,15.299-11.627,15.299c-5.456,0-7.803-2.295-7.803-8.363
		c0-12.545,6.375-17.95,13.412-17.95C92.834,26.978,94.058,30.751,94.159,34.474z M90.233,38.502c-1.479,0-2.143-1.071-2.143-2.295
		c0-1.479,0.867-3.06,2.244-3.57c-0.153-1.683-0.714-2.651-2.142-2.651c-4.794,0-6.833,10.403-6.833,14.482
		c0,3.06,1.428,3.876,3.416,3.876C87.888,48.345,89.621,43.449,90.233,38.502z"/>
	<path d="M120.476,27.487l-3.672,17.339c-0.102,0.561-0.204,1.122-0.204,1.581c0,1.121,0.51,1.938,2.55,1.938
		s4.691-2.855,6.731-4.487h1.734c-2.347,2.346-8.108,9.128-12.086,9.128c-3.468,0-5.813-1.326-6.272-4.284
		c-2.397,2.244-5.15,4.284-7.344,4.284c-3.927,0-6.374-1.734-6.374-5.559c0-0.765,0.102-1.632,0.306-2.601l3.672-17.339h7.343
		l-3.671,17.339c-0.103,0.561-0.204,1.122-0.204,1.581c0,1.121,0.51,1.938,2.55,1.938c1.07,0,2.346-0.816,3.62-1.836
		c0.052-0.51,0.153-1.071,0.307-1.683l3.671-17.339H120.476z"/>
	<path d="M137.204,26.569v0.714c0,8.415,3.723,10.862,3.723,16.829c0,4.742-3.009,8.873-9.894,8.873c-5.864,0-8.72-1.683-8.72-6.681
		c0-4.028,1.836-6.375,3.876-6.527c1.733-3.315,2.753-7.802,3.62-11.678L137.204,26.569z M126.75,46.101
		c-0.612,0-1.224-0.152-1.836-0.459c0,3.009,1.632,4.335,4.335,4.335c1.733,0,4.232-2.142,4.232-6.068
		c0-3.162-2.295-5.865-2.396-12.239c-0.816,2.499-1.53,5.763-2.652,8.312c1.225,0.408,1.683,1.326,1.683,2.856
		C130.064,44.775,128.535,46.101,126.75,46.101z"/>
</g>
<g>
</g>
<g>
</g>
<g>
</g>
<g>
</g>
<g>
</g>
<g>
</g>
</svg>
